<svg xmlns="http://www.w3.org/2000/svg" viewBox="0 0 700 250" width="700" height="250">
	<style>
		tspan { white-space:pre }
	</style>
	<path id="RAZTOT " fill="#ffffff" d="M31.82 176.45Q34.25 175.69 37.29 175.54Q40.48 175.23 43.06 174.62Q45.8 173.86 47.62 172.5Q49.45 170.98 49.45 167.63Q47.02 167.63 44.28 168.09Q41.54 168.54 38.96 169.61Q36.53 170.67 34.55 172.34Q32.58 174.02 31.82 176.45ZM104.78 174.32L111.46 165.5Q108.88 167.18 105.69 167.48Q102.65 167.78 99.46 168.24Q96.42 168.7 93.68 169.91Q90.94 170.98 89.27 174.32L104.78 174.32ZM56.14 125.53Q56.14 130.54 57.5 132.82Q59.02 135.1 60.7 136.78Q65.71 140.88 68.14 145.74Q70.73 150.46 73.01 155.32Q75.29 160.03 78.33 164.44Q81.37 168.85 87.14 172.19Q88.82 170.52 88.82 168.54Q88.82 166.57 87.14 163.22Q83.04 159.12 79.39 154.41Q75.9 149.54 72.4 144.53Q68.9 139.51 64.95 134.65Q61.15 129.78 56.14 125.53ZM51.73 90.11L51.73 105.62Q55.07 104.1 57.05 102.42Q59.02 100.75 60.7 99.08Q59.78 98.17 58.87 96.8Q58.11 95.28 57.05 93.76Q55.98 92.24 54.62 91.18Q53.4 90.11 51.73 90.11ZM53.86 81.45Q52.18 81.45 51.58 82.21Q51.12 82.97 51.12 84.03Q51.12 84.94 51.42 86.16Q51.73 87.22 51.73 87.98L56.14 87.98Q59.63 89.66 61.15 92.39Q62.82 95.13 62.82 96.8L65.1 94.67Q65.86 93.76 65.86 92.24Q66.02 90.72 65.56 89.2Q65.26 87.53 64.5 86.01Q63.74 84.49 62.82 83.58Q61.15 81.9 58.26 81.75Q55.53 81.45 53.86 81.45ZM67.23 85.86Q69.66 88.29 69.66 90.87Q69.66 93.3 68.3 95.74Q67.08 98.17 65.41 100.75Q63.74 103.18 62.82 105.62Q61.15 104.1 59.78 104.55Q58.42 105.01 56.9 106.07Q55.53 106.98 53.7 107.9Q51.88 108.66 49.45 107.9Q50.36 104.55 50.06 101.21Q49.9 97.86 49.45 94.67Q49.14 91.33 48.84 87.98Q48.69 84.64 49.45 81.45Q51.88 79.78 54.62 79.32Q57.5 78.86 59.94 79.47Q62.52 80.08 64.5 81.75Q66.47 83.42 67.23 85.86ZM36.22 72.48L29.69 85.86Q29.69 94.06 28.93 102.42Q28.32 110.63 27.71 118.99Q27.1 127.35 26.8 135.71Q26.65 143.92 27.41 152.28Q29.08 157.14 29.38 163.22Q29.69 169.3 29.69 174.32Q31.36 170.98 32.58 166.26Q33.94 161.55 33.94 156.69Q32.27 146.66 32.42 136.32Q32.73 125.98 33.49 115.5Q34.25 104.86 35.16 94.06Q36.22 83.27 36.22 72.48ZM84.86 68.22L80.61 65.94Q75.59 65.03 70.27 64.12Q64.95 63.06 59.78 62.6Q54.62 62.14 49.6 62.9Q44.74 63.51 40.63 65.94Q38.96 70.81 38.66 77.04Q38.5 83.12 38.5 87.98Q36.83 98.02 36.22 108.05Q35.62 117.93 35.62 127.81Q35.62 137.69 35.92 147.72Q36.22 157.6 36.22 167.63Q38.66 165.96 40.78 165.5Q43.06 164.9 45.04 164.74Q47.17 164.44 49.3 164.29Q51.42 164.14 53.86 163.22Q53.86 157.45 53.86 152.43Q53.86 147.26 53.55 142.25Q53.4 137.23 52.94 132.22Q52.49 127.05 51.73 121.27L53.86 121.27Q60.54 124.62 65.41 130.09Q70.27 135.56 74.38 141.79Q78.63 148.02 82.58 154.26Q86.54 160.49 91.55 165.5L93.83 163.22Q95.5 164.14 97.48 164.29Q99.46 164.29 101.28 163.83Q103.1 163.38 104.62 162.62Q106.14 161.86 107.06 160.94Q105.38 154.41 101.89 148.18Q98.39 141.79 93.98 135.86Q89.73 129.78 84.86 124.01Q80.15 118.08 76.05 112.3L78.33 110.02L89.27 94.67Q91.86 91.33 92.01 87.98Q92.31 84.64 91.25 81.45Q90.18 78.1 88.36 74.76Q86.54 71.42 84.86 68.22ZM84.86 65.94Q87.3 69.29 89.58 72.63Q92.01 75.98 93.53 79.47Q95.05 82.97 95.2 86.77Q95.5 90.57 93.83 94.67L80.61 112.3Q83.8 118.08 87.75 123.55Q91.86 129.02 95.96 134.5Q100.06 139.82 104.02 145.29Q108.12 150.76 111.46 156.69L113.74 163.22L104.78 178.73Q102.34 177.06 99.91 176.6Q97.48 175.99 95.2 175.99Q92.92 175.99 90.79 176.3Q88.82 176.45 87.14 176.45Q81.37 173.1 77.57 168.09Q73.92 163.07 70.73 157.45Q67.69 151.82 64.34 146.35Q61.15 140.88 56.14 136.78L56.14 165.5Q53.55 166.26 52.03 168.7Q50.66 171.13 49.14 173.41Q47.78 175.69 45.8 176.9Q43.98 178.12 40.63 176.45Q38.96 178.12 35.92 179.49Q32.88 180.86 29.69 180.86Q29.69 181.46 29.38 182.07Q28.78 183.14 27.41 183.14Q25.74 164.74 24.67 146.35Q23.61 127.96 25.28 107.9L25.28 87.98Q28.62 81.3 31.51 76.13Q34.55 70.81 36.22 65.94Q42 62.6 48.38 61.23Q54.92 59.86 61.3 60.17Q67.84 60.32 73.77 61.99Q79.85 63.51 84.86 65.94ZM138.37 169.76Q134.72 168.85 132.29 169.61Q130.01 170.22 128.49 171.89Q126.97 173.56 126.06 176.3Q125.14 178.88 124.23 181.77Q129.55 179.64 135.18 178.58Q140.95 177.51 146.27 175.99Q151.59 174.32 155.85 171.58Q160.26 168.7 162.84 163.07Q157.67 164.74 151.44 166.42Q145.21 167.94 138.37 169.76ZM211.48 163.07Q208.9 163.07 206.46 162.62Q204.18 162.01 202.21 162.31Q200.23 162.46 199.02 164.14Q197.95 165.66 197.95 169.76Q201.45 167.94 204.49 167.48Q207.53 166.87 209.2 165.35Q210.72 163.53 213 163.53Q215.28 163.53 217.26 163.53Q219.38 163.53 220.75 162.77Q222.27 161.86 222.27 158.66Q218.78 160.18 215.89 160.79Q213 161.25 211.48 163.07ZM186.1 133.28Q184.27 137.38 185.03 141.49Q185.79 145.44 187.31 149.39Q188.98 153.34 190.5 157.3Q192.18 161.25 192.18 165.35Q193.24 161.25 192.94 157.3Q192.78 153.34 191.72 149.39Q190.66 145.44 189.14 141.49Q187.62 137.38 186.1 133.28ZM183.82 131Q180.47 131 176.98 131.3Q173.63 131.61 170.44 133.28L170.44 144.38L172.72 144.38Q175.91 144.38 177.74 143.01Q179.56 141.49 180.62 139.51Q181.69 137.38 182.3 135.1Q182.9 132.67 183.82 131ZM170.44 112.46L172.72 112.46L170.44 107.9L170.44 112.46ZM170.44 94.52L168.46 101.21L170.44 101.21Q171.35 102.88 172.11 104.86Q173.02 106.68 173.94 108.2Q175 109.57 176.22 110.33Q177.58 111.09 179.41 110.18Q178.5 108.35 176.98 106.68Q175.61 105.01 174.09 103.18Q172.57 101.21 171.5 99.23Q170.44 97.1 170.44 94.52ZM177.13 101.21Q178.04 102.88 179.41 104.25Q180.93 105.46 182.14 106.98Q183.36 108.5 183.97 110.33Q184.73 112 183.82 114.43Q182.14 117.47 180.02 117.93Q178.04 118.23 175.76 117.62Q173.48 117.02 170.9 116.41Q168.31 115.65 165.73 116.26Q164.66 113.98 164.51 111.24Q164.36 108.5 164.66 105.62Q164.97 102.73 165.27 99.99Q165.73 97.1 165.73 94.52Q165.73 93.76 166.18 92.7Q166.64 91.48 167.55 90.42Q168.46 89.35 169.68 88.59Q171.05 87.83 172.72 87.83Q174.39 88.59 174.85 90.11Q175.46 91.63 175.61 93.61Q175.91 95.58 176.06 97.56Q176.22 99.54 177.13 101.21ZM149.62 80.08L136.39 96.8Q135.48 106.38 133.66 115.8Q131.98 125.07 129.86 134.65Q127.88 144.07 125.75 153.8Q123.62 163.53 121.95 173.86Q122.86 172.34 123.93 171.13Q124.99 169.91 125.75 168.85Q126.66 167.78 126.97 167.02Q127.27 166.11 126.51 165.35Q130.16 154.86 133.96 144.53Q137.76 134.19 140.95 123.7Q144.14 113.06 146.42 102.27Q148.7 91.33 149.62 80.08ZM154.02 73.7Q153.26 85.55 151.29 96.95Q149.31 108.2 146.12 119.14Q143.08 130.09 138.98 141.03Q135.02 151.98 130.31 163.07L136.39 160.64Q137.15 160.64 137.15 161.1Q137.3 161.4 137.15 162.16Q137 162.77 136.7 163.68Q136.39 164.44 136.39 165.35Q144.6 165.35 151.44 163.68Q158.43 162.01 165.73 158.66Q165.73 157.14 166.03 155.32Q166.34 153.5 166.34 151.82Q166.34 150.15 165.58 148.78Q164.97 147.26 162.84 146.35Q164.97 143.92 165.27 141.49Q165.58 139.06 165.58 136.62Q165.58 134.04 165.88 131.61Q166.34 129.18 168.46 126.59Q169.98 127.5 172.72 127.66Q175.46 127.66 178.5 127.05Q181.54 126.29 184.58 125.22Q187.77 124.01 190.2 122.34L190.2 124.31Q192.02 128.57 192.63 133.43Q193.39 138.3 194.3 142.7Q195.22 146.96 196.89 150.15Q198.56 153.34 202.51 154.41L202.51 158.66Q207.53 156.99 211.02 156.54Q214.52 155.93 217.71 154.41Q209.5 131.76 199.02 109.57Q188.53 87.22 177.13 64.73Q170.59 66.55 164.66 68.38Q158.89 70.2 154.02 73.7ZM181.38 67.16Q187.62 77.5 192.94 87.83Q198.26 98.02 203.12 108.05Q207.98 118.08 212.7 127.81Q217.41 137.38 222.27 146.35Q221.51 149.39 222.88 151.52Q224.25 153.5 225.62 155.32Q226.98 156.99 227.29 158.82Q227.59 160.64 224.7 163.07Q225.46 163.07 226.38 162.46Q227.44 161.86 228.5 161.4Q229.57 160.94 230.48 161.25Q231.54 161.4 232.3 163.07Q232.3 164.74 231.39 165.35Q230.48 165.96 229.26 166.42Q228.05 166.87 226.68 167.48Q225.46 168.09 224.7 169.76Q220.45 168.85 216.95 169.15Q213.46 169.46 209.96 170.22Q206.62 170.98 202.97 172.19Q199.47 173.26 194.91 173.86Q194.15 174.47 193.54 174.78Q192.18 175.38 192.18 173.86Q190.81 170.67 189.9 167.18Q188.98 163.53 187.77 160.03Q186.55 156.38 184.58 152.89Q182.75 149.39 179.41 146.35L170.44 148.78Q171.96 153.19 171.2 157.14Q170.59 161.1 168.46 164.74Q166.34 168.39 162.99 171.74Q159.65 174.93 156 178.12Q147.79 180.86 139.43 182.68Q131.07 184.5 121.95 186.18Q120.13 186.18 119.52 187.24Q119.06 188.15 117.54 188.15L115.57 186.18Q117.09 175.84 119.22 165.81Q121.5 155.78 123.47 145.74Q125.6 135.56 126.97 125.22Q128.49 114.74 128.49 103.49Q127.73 103.49 127.27 102.73Q126.97 101.97 126.97 100.9Q126.97 99.84 127.27 98.78Q127.73 97.56 128.49 96.8Q131.38 94.22 134.42 91.63Q137.46 88.9 140.04 86.01Q142.62 83.12 144.45 80.08Q146.42 77.04 147.34 73.7Q150.53 71.26 154.33 68.98Q158.28 66.55 162.38 64.73Q166.64 62.75 170.9 61.69Q175.3 60.47 179.41 60.47Q181.08 61.23 181.23 61.99Q181.54 62.75 181.23 63.66Q181.08 64.42 180.78 65.34Q180.62 66.25 181.38 67.16ZM296.45 169.46Q291.74 170.67 286.57 170.67Q281.55 170.67 276.38 170.37Q271.22 170.06 266.05 170.06Q261.03 169.91 256.47 170.82Q251.91 171.74 247.96 174.02Q244.01 176.3 241.12 180.86Q247.81 184.35 254.95 180.86Q260.88 181.77 266.5 181.01Q272.13 180.1 277.45 179.18Q282.92 178.27 288.09 178.27Q293.41 178.27 298.73 180.86Q302.98 182.68 306.02 181.46Q309.22 180.25 311.8 177.97Q314.54 175.54 316.82 172.95Q319.1 170.37 321.68 169.46Q318.18 170.37 314.69 170.52Q311.34 170.67 308.15 170.52Q304.96 170.22 301.92 169.91Q298.88 169.46 296.45 169.46ZM298.73 100.3Q289.15 108.05 281.55 117.02Q273.95 125.98 267.42 135.56Q261.03 144.98 255.26 154.86Q249.48 164.59 243.55 174.02L257.08 164.9Q263.16 157.14 268.33 148.94Q273.65 140.73 278.66 132.52Q283.68 124.31 288.54 116.26Q293.41 108.05 298.73 100.3ZM264.07 98.02Q264.07 98.93 263.77 99.84Q263.46 100.6 263.16 101.36Q263.01 101.97 263.01 102.42Q263.16 102.73 264.07 102.73Q264.07 103.64 263.62 104.1Q263.31 104.4 262.86 104.7Q262.25 105.01 261.79 105.01Q260.12 105.01 259.82 103.64Q259.51 102.12 259.51 100.3Q257.69 103.79 256.32 107.29Q254.95 110.63 254.95 114.13Q258.3 112.46 262.1 111.54Q266.05 110.48 270.15 109.57Q274.26 108.66 278.51 107.74Q282.92 106.68 287.18 105.01Q288.09 103.18 290.06 101.82Q292.04 100.3 294.17 98.62Q296.3 96.95 298.12 94.67Q300.1 92.39 301.01 88.9Q290.52 90.57 281.7 92.7Q272.89 94.67 264.07 98.02ZM259.51 93.61L259.51 77.34Q258.6 81.75 256.32 85.7Q254.19 89.66 252.22 93.76Q250.24 97.86 249.33 102.42Q248.42 106.83 250.09 112Q252.06 106.68 254.04 102.73Q256.02 98.62 259.51 93.61ZM270.91 65.94Q265.74 65.94 263.92 68.98Q262.25 71.87 262.25 75.98Q262.25 80.08 263.16 84.34Q264.07 88.59 264.07 91.18L264.07 93.61Q270.91 91.78 276.69 90.11Q282.46 88.29 289.61 86.62Q292.19 87.53 295.08 87.07Q297.97 86.46 300.7 86.01Q303.44 85.55 305.87 86.01Q308.3 86.31 309.98 88.9Q297.97 107.9 286.26 126.9Q274.56 145.9 264.07 164.9Q265.9 164.9 268.63 165.2Q271.52 165.35 273.19 167.02Q280.18 166.26 286.72 166.11Q293.26 165.96 299.79 165.96Q306.33 165.96 312.86 165.81Q319.4 165.66 326.24 164.9Q326.24 156.08 326.54 147.87Q326.85 139.51 328.52 132.67Q325.02 134.34 321.53 136.47Q318.03 138.45 314.38 140.12Q310.74 141.79 306.78 143.01Q302.98 144.07 298.73 144.07L294.02 139.66L312.56 109.57Q315.14 103.64 318.64 98.32Q322.14 92.85 325.33 87.53Q328.52 82.06 330.8 76.28Q333.08 70.35 333.08 63.51Q325.33 62.6 317.58 63.97Q309.82 65.18 302.07 66.55Q294.32 67.77 286.42 68.22Q278.66 68.53 270.91 65.94ZM337.79 61.23L337.79 63.51Q334.3 72.18 330.5 80.84Q326.85 89.35 321.68 98.02Q316.51 108.5 311.34 118.84Q306.18 129.18 301.01 139.66Q305.26 139.66 309.22 138.14Q313.17 136.62 316.97 134.65Q320.92 132.67 324.87 130.85Q328.82 128.87 333.08 127.96Q331.41 136.78 330.19 146.5Q329.13 156.08 330.8 164.9Q325.63 170.22 320.77 174.17Q315.9 177.97 312.56 183.29Q309.98 184.96 306.94 185.26Q304.05 185.42 301.01 184.81Q297.97 184.05 295.08 182.98Q292.19 181.77 289.61 180.86Q275.47 184.35 261.79 184.96Q248.11 185.57 234.13 185.57L234.13 183.29Q244.62 164.14 256.32 146.66Q268.02 129.18 280.18 112Q279.27 111.09 278.36 111.09Q277.6 110.94 276.54 111.24Q275.47 111.39 274.1 111.7Q272.74 112 270.91 112Q268.33 112.76 265.44 113.37Q262.55 113.98 259.66 115.04Q256.93 116.1 254.34 118.08Q251.91 119.9 250.09 123.25Q248.42 121.58 248.11 119.6Q247.96 117.47 248.11 115.34Q248.42 113.22 248.57 111.09Q248.72 108.96 247.96 107.14Q246.29 107.14 245.07 105.77Q244.01 104.4 245.68 102.73Q247.35 98.47 249.33 94.06Q251.46 89.66 253.28 85.25Q255.26 80.69 256.93 75.98Q258.6 71.11 259.51 65.94Q260.27 65.03 261.03 64.88Q261.94 64.73 262.7 65.03Q263.46 65.34 264.07 65.94Q267.57 64.12 272.13 64.12Q276.84 64.12 280.18 65.94Q287.18 65.94 294.02 64.88Q301.01 63.82 308.15 62.75Q315.3 61.69 322.59 61.08Q330.04 60.32 337.79 61.23ZM392.51 178.58Q393.42 177.66 394.64 177.66Q396.01 177.51 397.22 177.51Q398.59 177.51 399.81 177.36Q401.02 177.21 401.94 176.3Q403.76 175.38 405.74 175.23Q407.86 175.08 409.54 174.62Q411.36 174.17 412.58 173.1Q413.79 171.89 413.79 169.15Q411.06 170.98 407.41 170.67Q403.76 170.37 400.42 170.37Q397.22 170.37 394.79 171.89Q392.51 173.26 392.51 178.58ZM390.08 88.9Q389.17 90.72 387.5 92.09Q385.98 93.46 384.46 95.13Q382.94 96.65 381.72 98.47Q380.66 100.3 380.66 103.03Q382.48 105.62 383.09 108.35Q383.7 110.94 383.85 113.67Q384.15 116.26 384.3 118.99Q384.46 121.58 385.37 124.31Q386.28 130.54 385.98 137.23Q385.82 143.77 385.52 150.46Q385.37 156.99 385.67 163.68Q385.98 170.22 387.65 176.3Q389.47 172.8 391.3 170.67Q393.12 168.54 394.94 166.87L394.94 155.02Q397.53 147.11 396.77 139.06Q396.01 131 394.18 122.79Q392.36 114.58 390.69 106.22Q389.17 97.71 390.08 88.9ZM364.24 86.62Q361.5 87.53 358.46 88.14Q355.58 88.74 352.84 89.81Q350.26 90.87 348.13 92.85Q346.15 94.82 345.24 98.32L354.66 98.32Q357.4 101.06 360.44 101.36Q363.48 101.66 366.52 101.06Q369.56 100.3 372.6 99.38Q375.64 98.32 378.38 98.32L387.65 86.62Q385.06 87.53 382.33 87.38Q379.59 87.07 376.7 86.62Q373.97 86.16 370.78 86.01Q367.74 85.7 364.24 86.62ZM437.35 86.62L416.22 84.18Q415.01 88.29 416.22 91.02Q417.44 93.61 420.02 94.82Q422.61 96.04 425.8 96.04Q428.99 96.04 431.73 94.98Q434.62 93.76 436.29 91.63Q437.96 89.5 437.35 86.62ZM349.95 72.48Q346.46 75.98 344.63 82.51Q342.96 88.9 342.96 95.89Q345.54 94.06 346.91 91.18Q348.43 88.29 349.04 85.1Q349.8 81.75 349.8 78.41Q349.95 75.06 349.95 72.48ZM437.35 62.9L427.93 62.9Q419.87 65.64 411.06 66.1Q402.39 66.4 393.27 65.94Q384.3 65.49 375.03 65.03Q365.91 64.42 357.1 65.34L354.66 67.62Q354.66 70.2 354.21 72.48Q353.9 74.76 353.6 77.04Q353.45 79.32 353.6 81.6Q353.75 83.88 354.66 86.62Q359.07 82.97 363.78 82.51Q368.65 81.9 373.82 82.36Q378.98 82.82 384.3 83.27Q389.62 83.58 394.94 81.75Q394.94 83.58 396.01 84.18Q397.22 84.79 397.22 86.62Q395.55 91.94 395.25 98.32Q394.94 104.7 394.94 110.02Q398.44 124.31 399.05 138.45Q399.66 152.58 399.66 166.87Q402.24 165.05 405.28 165.05Q408.32 165.05 411.06 165.35Q413.94 165.5 416.53 165.2Q419.11 164.74 420.78 162.01Q420.78 144.38 419.26 127.96Q417.9 111.39 416.22 93.61L413.79 93.61Q413.79 91.78 413.34 90.11Q413.03 88.29 412.73 86.62Q412.58 84.79 412.73 83.12Q412.88 81.3 413.79 79.47Q417.29 79.47 420.48 79.93Q423.67 80.23 426.71 80.69Q429.9 80.99 432.94 81.45Q436.14 81.75 439.63 81.75L437.35 62.9ZM444.5 79.47L444.5 84.18Q442.06 84.79 440.7 86.62Q439.48 88.29 438.57 90.57Q437.81 92.7 437.05 94.82Q436.44 96.95 435.38 98.32Q434.31 99.69 432.49 99.99Q430.82 100.14 427.93 98.32Q427.02 99.23 425.65 99.38Q424.43 99.54 423.06 99.54Q421.85 99.54 420.48 99.69Q419.26 99.84 418.35 100.75Q420.18 107.9 421.09 115.04Q422.15 122.03 422.76 129.18Q423.52 136.17 423.98 143.31Q424.58 150.46 425.5 157.45Q425.5 161.86 423.98 164.74Q422.46 167.63 420.18 169.91Q418.05 172.04 415.62 174.02Q413.18 175.99 411.36 178.58Q406.04 180.4 400.72 180.7Q395.4 181.01 390.08 181.01Q388.26 182.68 387.95 183.29Q387.65 183.9 387.65 185.72Q385.98 184.81 385.67 183.29Q385.37 181.62 385.37 179.94Q385.37 178.12 385.06 176.6Q384.76 174.93 383.09 174.02Q382.18 165.2 382.33 155.93Q382.48 146.66 382.48 137.69Q382.48 128.57 381.72 119.9Q380.96 111.09 378.38 103.03Q374.73 102.12 371.54 102.73Q368.5 103.34 365.61 103.79Q362.72 104.25 359.98 103.94Q357.4 103.49 354.66 100.75Q352.84 100.75 350.71 101.06Q348.74 101.36 346.76 101.36Q344.78 101.36 343.11 100.75Q341.44 100.14 340.53 98.32L340.53 79.47Q344.02 75.82 347.22 72.02Q350.56 68.22 352.23 62.9Q362.87 61.99 373.51 62.14Q384.15 62.3 394.79 62.3Q405.43 62.3 416.07 61.69Q426.71 60.93 437.35 58.19Q440.09 59.1 440.85 61.54Q441.61 63.97 441.76 67.16Q442.06 70.2 442.37 73.54Q442.67 76.89 444.5 79.47ZM501.04 106.53Q499.06 104.7 496.02 104.7Q493.14 104.7 491.46 106.53Q491.46 110.02 491.46 113.52Q491.62 117.02 492.22 120.21Q492.98 123.25 494.35 125.83Q495.87 128.42 498.46 130.24Q501.19 132.06 503.78 133.74Q506.51 135.26 509.1 136.17Q511.83 136.93 514.42 136.78Q517.15 136.62 519.89 134.95Q519.89 133.13 520.19 131.46Q520.5 129.63 520.65 127.96Q520.95 126.14 520.8 124.31Q520.8 122.49 519.89 120.66Q516.24 115.34 512.14 111.85Q508.03 108.35 501.04 106.53ZM463.04 97.1Q459.54 104.25 456.2 110.18Q452.86 115.95 451.18 122.94Q452.4 128.26 453.01 134.04Q453.62 139.66 454.22 145.29Q454.83 150.91 455.9 156.54Q457.11 162.01 459.24 167.02Q461.52 172.04 465.17 176.6Q468.97 181.01 474.9 184.5Q481.89 188.15 489.34 188.46Q496.78 188.76 504.08 186.94Q511.38 185.11 518.37 181.92Q525.36 178.73 531.59 175.23Q523.54 176.14 515.33 176.3Q507.12 176.45 499.37 174.93Q491.62 173.26 484.78 169.61Q477.94 165.81 472.62 158.66Q467.3 152.43 464.1 144.68Q460.91 136.93 459.85 128.72Q458.78 120.51 459.54 112.46Q460.46 104.25 463.04 97.1ZM519.89 82.97Q518.06 81.14 516.54 81.3Q515.18 81.45 513.81 82.06Q512.59 82.66 511.22 83.27Q509.86 83.88 508.03 82.97Q500.89 84.64 496.94 89.35Q493.14 94.06 491.46 99.38Q501.95 99.38 512.74 106.53Q515.48 108.35 517.91 110.94Q520.5 113.52 522.47 116.71Q524.45 119.75 525.66 123.25Q526.88 126.59 526.88 130.24Q528.7 129.33 529.92 127.66Q531.29 125.98 532.2 124.01Q533.11 121.88 533.57 119.9Q534.02 117.78 534.02 115.95Q534.02 105.31 530.38 97.71Q526.88 89.96 519.89 82.97ZM538.74 106.53Q539.65 112.76 538.43 118.08Q537.22 123.4 534.48 127.81Q531.9 132.22 528.1 135.86Q524.3 139.36 519.89 142.1Q518.98 141.18 517.61 141.03Q516.39 140.88 514.87 140.88Q513.35 140.88 511.53 140.73Q509.86 140.42 508.03 139.51Q505.45 138.6 502.71 137.08Q500.13 135.41 497.7 133.43Q495.26 131.46 492.98 129.48Q490.86 127.35 489.18 125.53Q486.45 120.21 485.84 114.58Q485.23 108.96 486.3 103.64Q487.51 98.32 490.1 93.61Q492.68 88.9 496.18 85.25Q498 83.42 500.13 82.51Q502.41 81.45 504.84 80.54Q507.27 79.62 509.86 78.56Q512.44 77.5 515.02 75.67Q519.43 78.41 523.38 81.9Q527.34 85.4 530.38 89.5Q533.57 93.46 535.7 97.86Q537.82 102.12 538.74 106.53ZM489.18 70.96Q482.95 73.7 478.7 78.41Q474.59 83.12 471.7 88.9Q468.82 94.67 466.84 101.06Q464.86 107.44 463.04 113.67Q463.04 122.49 464.86 130.85Q466.69 139.06 470.18 146.2Q473.68 153.19 479 158.82Q484.32 164.44 491.46 167.94Q497.7 169.76 504.84 170.98Q512.14 172.04 519.43 171.58Q526.73 171.13 533.57 168.7Q540.41 166.26 545.73 160.94Q551.96 154.71 555.91 146.96Q560.02 139.21 561.69 130.85Q563.51 122.34 563.06 113.82Q562.75 105.16 560.02 97.1Q558.19 90.87 554.85 85.25Q551.5 79.62 546.94 75.22Q542.54 70.81 537.37 67.92Q532.2 64.88 526.88 63.97Q526.88 65.79 526.58 66.4Q526.27 67.01 524.6 68.68Q520.95 65.03 516.24 63.97Q511.68 62.9 506.82 63.66Q501.95 64.27 497.24 66.4Q492.68 68.38 489.18 70.96ZM538.74 63.97Q545.73 68.38 551.05 74.46Q556.52 80.54 560.02 87.83Q563.51 95.13 565.34 103.49Q567.16 111.85 567.16 120.66Q566.25 127.81 564.73 134.8Q563.36 141.64 560.62 147.87Q558.04 154.1 553.78 159.27Q549.68 164.44 543.45 167.94Q538.13 175.08 531.14 179.79Q524.3 184.35 516.54 187.09Q508.79 189.67 500.43 190.74Q492.22 191.8 484.32 191.8Q475.96 189.98 470.34 186.02Q464.71 181.92 460.76 176.45Q456.96 170.98 454.68 164.44Q452.4 157.9 450.88 150.91Q449.51 143.77 448.6 136.62Q447.69 129.48 446.47 122.94Q450.88 114.13 455.9 104.4Q461.06 94.67 467.45 86.16Q473.98 77.5 482.19 70.96Q490.4 64.27 501.04 61.54Q505.45 61.54 510.16 60.62Q515.02 59.71 519.89 59.26Q524.75 58.8 529.46 59.71Q534.33 60.47 538.74 63.97ZM624.16 178.58Q625.07 177.66 626.29 177.66Q627.66 177.51 628.87 177.51Q630.24 177.51 631.46 177.36Q632.67 177.21 633.58 176.3Q635.41 175.38 637.38 175.23Q639.51 175.08 641.18 174.62Q643.01 174.17 644.22 173.1Q645.44 171.89 645.44 169.15Q642.7 170.98 639.06 170.67Q635.41 170.37 632.06 170.37Q628.87 170.37 626.44 171.89Q624.16 173.26 624.16 178.58ZM621.73 88.9Q620.82 90.72 619.14 92.09Q617.62 93.46 616.1 95.13Q614.58 96.65 613.37 98.47Q612.3 100.3 612.3 103.03Q614.13 105.62 614.74 108.35Q615.34 110.94 615.5 113.67Q615.8 116.26 615.95 118.99Q616.1 121.58 617.02 124.31Q617.93 130.54 617.62 137.23Q617.47 143.77 617.17 150.46Q617.02 156.99 617.32 163.68Q617.62 170.22 619.3 176.3Q621.12 172.8 622.94 170.67Q624.77 168.54 626.59 166.87L626.59 155.02Q629.18 147.11 628.42 139.06Q627.66 131 625.83 122.79Q624.01 114.58 622.34 106.22Q620.82 97.71 621.73 88.9ZM595.89 86.62Q593.15 87.53 590.11 88.14Q587.22 88.74 584.49 89.81Q581.9 90.87 579.78 92.85Q577.8 94.82 576.89 98.32L586.31 98.32Q589.05 101.06 592.09 101.36Q595.13 101.66 598.17 101.06Q601.21 100.3 604.25 99.38Q607.29 98.32 610.02 98.32L619.3 86.62Q616.71 87.53 613.98 87.38Q611.24 87.07 608.35 86.62Q605.62 86.16 602.42 86.01Q599.38 85.7 595.89 86.62ZM669 86.62L647.87 84.18Q646.66 88.29 647.87 91.02Q649.09 93.61 651.67 94.82Q654.26 96.04 657.45 96.04Q660.64 96.04 663.38 94.98Q666.26 93.76 667.94 91.63Q669.61 89.5 669 86.62ZM581.6 72.48Q578.1 75.98 576.28 82.51Q574.61 88.9 574.61 95.89Q577.19 94.06 578.56 91.18Q580.08 88.29 580.69 85.1Q581.45 81.75 581.45 78.41Q581.6 75.06 581.6 72.48ZM669 62.9L659.58 62.9Q651.52 65.64 642.7 66.1Q634.04 66.4 624.92 65.94Q615.95 65.49 606.68 65.03Q597.56 64.42 588.74 65.34L586.31 67.62Q586.31 70.2 585.86 72.48Q585.55 74.76 585.25 77.04Q585.1 79.32 585.25 81.6Q585.4 83.88 586.31 86.62Q590.72 82.97 595.43 82.51Q600.3 81.9 605.46 82.36Q610.63 82.82 615.95 83.27Q621.27 83.58 626.59 81.75Q626.59 83.58 627.66 84.18Q628.87 84.79 628.87 86.62Q627.2 91.94 626.9 98.32Q626.59 104.7 626.59 110.02Q630.09 124.31 630.7 138.45Q631.3 152.58 631.3 166.87Q633.89 165.05 636.93 165.05Q639.97 165.05 642.7 165.35Q645.59 165.5 648.18 165.2Q650.76 164.74 652.43 162.01Q652.43 144.38 650.91 127.96Q649.54 111.39 647.87 93.61L645.44 93.61Q645.44 91.78 644.98 90.11Q644.68 88.29 644.38 86.62Q644.22 84.79 644.38 83.12Q644.53 81.3 645.44 79.47Q648.94 79.47 652.13 79.93Q655.32 80.23 658.36 80.69Q661.55 80.99 664.59 81.45Q667.78 81.75 671.28 81.75L669 62.9ZM676.14 79.47L676.14 84.18Q673.71 84.79 672.34 86.62Q671.13 88.29 670.22 90.57Q669.46 92.7 668.7 94.82Q668.09 96.95 667.02 98.32Q665.96 99.69 664.14 99.99Q662.46 100.14 659.58 98.32Q658.66 99.23 657.3 99.38Q656.08 99.54 654.71 99.54Q653.5 99.54 652.13 99.69Q650.91 99.84 650 100.75Q651.82 107.9 652.74 115.04Q653.8 122.03 654.41 129.18Q655.17 136.17 655.62 143.31Q656.23 150.46 657.14 157.45Q657.14 161.86 655.62 164.74Q654.1 167.63 651.82 169.91Q649.7 172.04 647.26 174.02Q644.83 175.99 643.01 178.58Q637.69 180.4 632.37 180.7Q627.05 181.01 621.73 181.01Q619.9 182.68 619.6 183.29Q619.3 183.9 619.3 185.72Q617.62 184.81 617.32 183.29Q617.02 181.62 617.02 179.94Q617.02 178.12 616.71 176.6Q616.41 174.93 614.74 174.02Q613.82 165.2 613.98 155.93Q614.13 146.66 614.13 137.69Q614.13 128.57 613.37 119.9Q612.61 111.09 610.02 103.03Q606.38 102.12 603.18 102.73Q600.14 103.34 597.26 103.79Q594.37 104.25 591.63 103.94Q589.05 103.49 586.31 100.75Q584.49 100.75 582.36 101.06Q580.38 101.36 578.41 101.36Q576.43 101.36 574.76 100.75Q573.09 100.14 572.18 98.32L572.18 79.47Q575.67 75.82 578.86 72.02Q582.21 68.22 583.88 62.9Q594.52 61.99 605.16 62.14Q615.8 62.3 626.44 62.3Q637.08 62.3 647.72 61.69Q658.36 60.93 669 58.19Q671.74 59.1 672.5 61.54Q673.26 63.97 673.41 67.16Q673.71 70.2 674.02 73.54Q674.32 76.89 676.14 79.47Z" />
</svg>