<?xml version="1.0" standalone="no"?>
<!DOCTYPE svg PUBLIC "-//W3C//DTD SVG 20010904//EN"
 "http://www.w3.org/TR/2001/REC-SVG-20010904/DTD/svg10.dtd">
<svg version="1.0" xmlns="http://www.w3.org/2000/svg"
 width="338.000000pt" height="338.000000pt" viewBox="0 0 338.000000 338.000000"
 preserveAspectRatio="xMidYMid meet">
<metadata>
Created by potrace 1.11, written by Peter Selinger 2001-2013
</metadata>
<g transform="translate(0.000000,338.000000) scale(0.100000,-0.100000)"
fill="#000000" stroke="none">
<path d="M1550 3353 c-169 -30 -265 -122 -290 -280 -10 -57 -10 -57 25 -89 28
-25 35 -39 35 -68 0 -50 0 -51 -14 -47 -206 63 -215 64 -406 34 -19 -3 -80
-22 -135 -43 -55 -21 -119 -43 -142 -49 -50 -14 -55 -34 -13 -53 17 -7 30 -17
30 -21 0 -5 4 -6 9 -2 6 3 13 -1 18 -9 8 -15 11 -16 39 -16 9 0 12 -5 8 -12
-5 -8 -2 -9 10 -5 10 4 19 1 22 -8 4 -8 9 -13 13 -11 4 3 13 1 21 -4 11 -7 5
-18 -27 -53 -23 -25 -48 -58 -56 -74 -9 -16 -34 -42 -57 -57 -67 -44 -109 -96
-155 -191 -59 -121 -84 -242 -66 -317 17 -70 16 -88 -7 -188 -25 -111 -9 -170
57 -208 l28 -16 -19 -32 c-31 -53 -30 -234 3 -315 10 -25 45 -49 73 -49 14 0
2 -77 -28 -166 -57 -178 -37 -428 49 -612 19 -41 32 -79 28 -85 -3 -7 -3 -9 2
-5 8 8 82 -82 77 -95 -1 -5 2 -6 6 -3 5 3 18 -4 28 -15 10 -11 35 -30 56 -41
21 -12 38 -26 38 -32 0 -5 3 -7 6 -3 3 3 18 1 33 -5 38 -15 119 -16 168 -2 23
6 44 9 47 6 4 -3 6 0 6 6 0 6 10 14 22 18 12 3 43 27 70 52 27 25 52 42 56 36
4 -5 13 -9 20 -10 6 -1 21 -2 33 -2 11 -1 18 -6 15 -11 -3 -4 6 -7 21 -5 24 2
78 -27 68 -38 -4 -4 5 -5 75 -11 25 -1 52 -7 59 -12 10 -5 12 -4 7 3 -5 9 10
12 53 12 40 0 61 -4 61 -12 0 -6 3 -8 6 -5 4 3 16 1 27 -5 25 -13 139 -19 131
-7 -3 5 1 9 10 9 8 0 36 9 63 21 26 11 56 21 65 22 9 1 15 4 12 8 -12 20 74
51 101 37 12 -7 16 -7 11 0 -7 12 22 25 36 15 7 -3 8 -1 4 5 -4 7 -3 12 1 12
5 0 26 16 46 35 37 35 38 35 58 16 12 -11 34 -25 50 -31 16 -7 29 -17 29 -22
0 -5 4 -7 9 -4 11 7 73 -18 71 -28 -1 -4 1 -11 5 -14 4 -4 5 0 3 8 -4 17 33
22 44 5 5 -6 8 -6 8 3 0 6 5 12 11 12 5 0 7 -6 3 -12 -6 -10 -4 -10 7 -2 13
11 63 27 84 28 6 1 19 9 29 18 10 10 22 15 26 13 5 -3 11 2 14 11 3 9 12 14
20 11 8 -3 13 1 12 11 0 9 5 16 12 14 8 -1 11 2 8 6 -3 5 3 17 13 26 35 32 93
166 113 264 32 155 16 367 -40 512 -8 21 -5 28 30 53 40 28 62 66 71 122 3 17
19 60 36 96 16 36 35 96 42 133 8 46 19 75 34 91 44 43 56 155 21 184 -11 9
-13 37 -11 116 2 69 -2 123 -11 157 -8 29 -17 73 -19 98 -8 76 -16 102 -56
180 -46 90 -64 113 -105 134 l-32 15 38 41 c20 22 45 40 54 40 14 0 15 2 4 13
-46 44 -175 127 -290 187 -26 14 -49 31 -51 40 -1 8 7 53 19 100 31 121 26
157 -31 241 -26 39 -56 74 -66 80 -21 11 -97 25 -179 34 -30 3 -66 8 -80 10
-14 2 -65 11 -115 19 -49 8 -110 17 -135 21 -25 3 -72 9 -105 14 -65 9 -205
12 -245 4z m1132 -2471 c10 -37 -1 -205 -17 -270 -16 -68 -72 -183 -90 -186
-5 0 -21 35 -36 78 -24 73 -26 82 -13 113 8 18 15 55 15 83 1 44 5 52 34 71
32 22 85 95 85 118 0 18 17 13 22 -7z m-1972 -85 c0 -10 -14 -2 -57 32 -18 14
-33 32 -33 39 0 7 20 -4 45 -25 25 -20 45 -41 45 -46z m-45 -43 c6 -6 22 -18
36 -27 14 -10 30 -32 36 -51 10 -31 7 -40 -37 -116 -26 -45 -50 -78 -52 -74
-26 44 -54 219 -49 308 1 18 3 18 29 -5 15 -13 32 -29 37 -35z m73 -293 c-56
-85 -69 -54 -16 39 28 50 32 53 40 34 8 -17 3 -32 -24 -73z m1750 37 c15 -59
3 -69 -22 -17 -13 28 -17 47 -11 51 18 13 22 9 33 -34z m-1616 5 c16 -19 42
-80 37 -85 -2 -2 6 -17 19 -35 12 -17 22 -40 22 -51 0 -11 3 -22 8 -24 9 -4
55 -88 51 -92 -2 -2 -14 -7 -26 -10 -19 -6 -22 -4 -17 11 5 16 5 16 -5 1 -9
-13 -20 -15 -49 -11 -20 3 -40 11 -44 17 -4 6 -8 7 -8 3 0 -30 -130 87 -130
118 0 29 10 37 29 22 14 -11 14 -10 2 5 -12 16 -8 26 30 83 24 35 49 65 55 65
6 0 18 -8 26 -17z m1556 -56 c12 -28 22 -58 22 -64 0 -7 5 -13 10 -13 15 0 12
-26 -2 -28 -7 -1 -28 -4 -45 -6 -20 -3 -33 -1 -33 5 0 6 -4 8 -9 5 -5 -4 -22
-1 -38 5 -20 8 -24 13 -13 17 8 3 19 11 23 19 5 7 12 11 16 8 5 -2 8 1 8 8 -2
17 25 97 32 97 3 0 16 -24 29 -53z m-1400 -127 c-2 -7 -10 1 -17 16 -12 27
-11 28 4 12 10 -9 16 -21 13 -28z"/>
<path d="M894 346 c1 -8 5 -18 8 -22 4 -3 5 1 4 10 -1 8 -5 18 -8 22 -4 3 -5
-1 -4 -10z"/>
<path d="M754 336 c1 -8 5 -18 8 -22 4 -3 5 1 4 10 -1 8 -5 18 -8 22 -4 3 -5
-1 -4 -10z"/>
<path d="M826 342 c-3 -5 1 -9 9 -9 8 0 12 4 9 9 -3 4 -7 8 -9 8 -2 0 -6 -4
-9 -8z"/>
<path d="M2716 333 c-6 -14 -5 -15 5 -6 7 7 10 15 7 18 -3 3 -9 -2 -12 -12z"/>
<path d="M2726 298 c3 -5 10 -6 15 -3 13 9 11 12 -6 12 -8 0 -12 -4 -9 -9z"/>
<path d="M593 275 c0 -8 4 -12 9 -9 5 3 6 10 3 15 -9 13 -12 11 -12 -6z"/>
<path d="M2833 275 c0 -8 4 -12 9 -9 5 3 6 10 3 15 -9 13 -12 11 -12 -6z"/>
<path d="M544 262 c4 -3 14 -7 22 -8 9 -1 13 0 10 4 -4 3 -14 7 -22 8 -9 1
-13 0 -10 -4z"/>
<path d="M2873 234 c0 -9 4 -11 12 -4 7 5 14 9 16 7 2 -1 3 0 1 2 -7 11 -29 7
-29 -5z"/>
<path d="M2815 229 c-4 -6 -5 -12 -2 -15 2 -3 7 2 10 11 7 17 1 20 -8 4z"/>
<path d="M474 222 c4 -3 14 -7 22 -8 9 -1 13 0 10 4 -4 3 -14 7 -22 8 -9 1
-13 0 -10 -4z"/>
<path d="M2216 222 c-3 -4 4 -9 15 -9 23 -2 25 3 4 10 -8 4 -16 3 -19 -1z"/>
<path d="M2535 220 c-2 -3 9 -6 25 -6 17 0 27 2 25 5 -8 7 -45 9 -50 1z"/>
<path d="M599 198 c-5 -18 -6 -38 -1 -34 7 8 12 36 6 36 -2 0 -4 -1 -5 -2z"/>
<path d="M2119 187 c8 -9 16 -15 19 -12 3 3 12 -1 21 -8 14 -11 14 -10 2 6 -8
9 -16 15 -19 12 -3 -3 -12 1 -21 8 -14 11 -14 10 -2 -6z"/>
<path d="M1173 175 c0 -8 4 -12 9 -9 5 3 6 10 3 15 -9 13 -12 11 -12 -6z"/>
<path d="M1204 182 c4 -3 14 -7 22 -8 9 -1 13 0 10 4 -4 3 -14 7 -22 8 -9 1
-13 0 -10 -4z"/>
<path d="M1993 175 c0 -8 4 -12 9 -9 5 3 6 10 3 15 -9 13 -12 11 -12 -6z"/>
<path d="M2233 175 c0 -8 4 -12 9 -9 4 3 8 9 8 15 0 5 -4 9 -8 9 -5 0 -9 -7
-9 -15z"/>
<path d="M2545 180 c-3 -6 1 -7 9 -4 18 7 21 14 7 14 -6 0 -13 -4 -16 -10z"/>
<path d="M1313 165 c0 -8 4 -12 9 -9 5 3 6 10 3 15 -9 13 -12 11 -12 -6z"/>
<path d="M2067 159 c7 -7 15 -10 18 -7 3 3 -2 9 -12 12 -14 6 -15 5 -6 -5z"/>
<path d="M2640 155 c-7 -8 -16 -13 -19 -10 -4 2 -8 -3 -8 -11 0 -11 6 -9 24 8
13 12 23 23 23 25 0 7 -8 2 -20 -12z"/>
<path d="M1175 140 c-3 -5 -1 -10 4 -10 6 0 11 5 11 10 0 6 -2 10 -4 10 -3 0
-8 -4 -11 -10z"/>
<path d="M1995 139 c-3 -4 2 -6 10 -5 21 3 28 13 10 13 -9 0 -18 -4 -20 -8z"/>
<path d="M2134 142 c4 -3 14 -7 22 -8 9 -1 13 0 10 4 -4 3 -14 7 -22 8 -9 1
-13 0 -10 -4z"/>
<path d="M2235 139 c-3 -4 2 -6 10 -5 21 3 28 13 10 13 -9 0 -18 -4 -20 -8z"/>
<path d="M2406 138 c3 -5 10 -6 15 -3 13 9 11 12 -6 12 -8 0 -12 -4 -9 -9z"/>
<path d="M1116 122 c-3 -5 1 -9 9 -9 8 0 12 4 9 9 -3 4 -7 8 -9 8 -2 0 -6 -4
-9 -8z"/>
<path d="M1353 94 c0 -9 4 -11 12 -4 7 5 14 9 16 7 2 -1 3 0 1 2 -7 11 -29 7
-29 -5z"/>
<path d="M1576 98 c3 -4 11 -5 19 -1 21 7 19 12 -4 10 -11 0 -18 -5 -15 -9z"/>
<path d="M1630 106 c0 -2 7 -7 16 -10 8 -3 12 -2 9 4 -6 10 -25 14 -25 6z"/>
<path d="M1670 100 c0 -5 5 -10 11 -10 5 0 7 5 4 10 -3 6 -8 10 -11 10 -2 0
-4 -4 -4 -10z"/>
<path d="M2280 106 c0 -2 8 -10 18 -17 15 -13 16 -12 3 4 -13 16 -21 21 -21
13z"/>
<path d="M2316 98 c3 -5 10 -6 15 -3 13 9 11 12 -6 12 -8 0 -12 -4 -9 -9z"/>
<path d="M1075 91 c-3 -5 -2 -12 3 -15 5 -3 9 1 9 9 0 17 -3 19 -12 6z"/>
<path d="M2213 85 c0 -8 4 -12 9 -9 5 3 6 10 3 15 -9 13 -12 11 -12 -6z"/>
<path d="M1275 81 c-3 -5 -2 -12 3 -15 5 -3 9 1 9 9 0 17 -3 19 -12 6z"/>
<path d="M1439 88 c-5 -18 -6 -38 -1 -34 7 8 12 36 6 36 -2 0 -4 -1 -5 -2z"/>
<path d="M2105 80 c-3 -6 1 -7 9 -4 18 7 21 14 7 14 -6 0 -13 -4 -16 -10z"/>
<path d="M1506 58 c3 -5 10 -6 15 -3 13 9 11 12 -6 12 -8 0 -12 -4 -9 -9z"/>
<path d="M1920 60 c-9 -6 -10 -10 -3 -10 6 0 15 5 18 10 8 12 4 12 -15 0z"/>
</g>
</svg>
